<?xml version="1.0" standalone="no"?>
<!DOCTYPE svg PUBLIC "-//W3C//DTD SVG 20010904//EN"
 "http://www.w3.org/TR/2001/REC-SVG-20010904/DTD/svg10.dtd">
<svg version="1.0" xmlns="http://www.w3.org/2000/svg"
 width="325.000000pt" height="325.000000pt" viewBox="0 0 325.000000 325.000000"
 preserveAspectRatio="xMidYMid meet">
<metadata>
Created by potrace 1.14, written by Peter Selinger 2001-2017
</metadata>
<g transform="translate(0.000000,325.000000) scale(0.100000,-0.100000)"
fill="#000000" stroke="none">
<path d="M359 3214 l-36 -25 2 -722 c1 -397 0 -727 -2 -734 -3 -8 -36 -11
-108 -10 -79 1 -108 -3 -122 -14 -10 -8 -30 -21 -44 -28 l-26 -13 -2 -164 -2
-164 63 -1 c35 0 103 -1 153 -2 l90 -2 2 -300 c1 -165 2 -307 2 -316 1 -14 21
-16 164 -15 249 2 235 -18 235 325 0 148 3 274 7 280 3 6 33 11 65 11 l59 0
37 -67 c21 -38 40 -70 43 -73 3 -3 14 -21 25 -40 32 -62 72 -132 135 -238 34
-57 61 -106 61 -109 0 -12 93 -188 101 -191 5 -2 9 -8 9 -13 0 -19 112 -162
179 -228 102 -101 188 -171 210 -171 5 0 11 -4 13 -8 6 -14 161 -89 238 -115
126 -43 223 -58 369 -58 130 0 241 15 316 42 116 42 195 81 285 140 117 78
350 309 350 348 0 14 -41 61 -53 61 -6 0 -17 7 -26 15 -9 8 -28 25 -42 37 -15
13 -39 33 -53 46 -28 23 -61 29 -71 12 -4 -6 -10 -8 -14 -6 -13 8 -31 -10 -79
-81 -117 -176 -352 -270 -604 -242 -67 7 -71 19 -7 19 71 0 269 51 339 87 85
43 241 161 277 208 87 115 155 255 173 358 18 94 12 349 -8 381 -3 6 -7 17 -7
26 -4 42 -91 242 -114 260 -3 3 -18 21 -33 40 -40 54 -139 151 -189 185 -24
16 -46 32 -49 35 -6 7 -109 56 -132 64 -25 8 -22 31 7 53 14 10 26 29 26 43 2
25 -9 146 -17 205 -3 17 -6 41 -8 55 -1 14 -4 28 -4 31 -2 7 -100 29 -162 37
-61 7 -303 7 -365 0 -27 -4 -69 -13 -92 -22 -24 -8 -43 -13 -43 -9 0 3 -11 -2
-25 -11 -14 -9 -25 -14 -25 -11 0 3 -43 -17 -95 -44 -91 -48 -95 -49 -95 -28
0 40 -37 189 -63 259 -36 93 -97 194 -151 250 -25 26 -46 50 -46 53 0 3 -12
17 -27 31 -16 14 -44 40 -63 58 -40 37 -134 106 -145 106 -4 0 -19 8 -33 18
-28 19 -179 73 -216 78 -11 1 -34 8 -51 14 -16 7 -66 14 -110 15 -369 16 -337
17 -376 -11z m467 -398 c184 -75 312 -196 374 -356 12 -30 21 -55 20 -55 -1 0
1 -7 4 -15 32 -90 31 -310 -3 -404 -71 -199 -208 -300 -412 -305 l-86 -2 -1
580 -2 581 23 0 c13 0 50 -11 83 -24z m1362 -710 c3 -3 -11 -6 -30 -6 -54 0
-162 -39 -273 -99 -80 -43 -117 -71 -185 -141 -47 -47 -103 -110 -124 -138
-22 -28 -42 -50 -44 -48 -2 2 12 38 31 79 26 56 55 97 114 158 68 71 91 88
173 127 126 59 309 96 338 68z m118 -232 c23 -14 50 -36 59 -50 19 -29 45
-122 41 -147 -8 -55 -95 -94 -145 -64 -38 22 -97 111 -105 157 -6 39 10 95 35
127 15 17 61 8 115 -23z m-389 -217 c22 -10 68 -86 84 -139 5 -20 5 -47 -2
-73 -9 -35 -17 -46 -49 -60 -36 -16 -40 -16 -82 3 -68 30 -110 88 -115 158 -3
46 0 62 18 89 21 30 27 33 73 32 28 0 61 -4 73 -10z m783 -53 c66 -33 106
-114 94 -190 -11 -76 -51 -104 -111 -79 -33 14 -106 75 -99 82 2 3 -2 23 -10
45 -26 75 -15 145 26 160 19 7 68 -1 100 -18z m-782 -458 c61 -21 101 -93 92
-166 -8 -60 -30 -87 -84 -101 -34 -9 -46 -8 -74 7 -42 23 -96 105 -100 154 -3
32 2 45 32 77 30 33 41 39 73 38 21 0 49 -5 61 -9z m802 -46 c17 -12 30 -26
30 -32 0 -6 7 -19 14 -27 8 -9 18 -32 21 -50 3 -19 8 -38 11 -42 3 -5 0 -26
-5 -46 -12 -43 -52 -73 -95 -73 -32 0 -104 64 -111 98 -3 12 -8 32 -11 45 -17
64 -16 73 18 113 28 35 38 41 66 38 18 -2 46 -13 62 -24z m-430 -209 c26 -6
83 -75 98 -116 21 -57 16 -88 -25 -143 -32 -43 -70 -41 -127 9 -44 39 -66 88
-72 160 -4 51 37 96 86 94 19 -2 37 -3 40 -4z"/>
</g>
</svg>
